<svg xmlns="http://www.w3.org/2000/svg" width="980" height="520" viewBox="0 0 980 520" role="img" aria-labelledby="title desc">
  <title id="title">CodeWF.EventBus.Socket architecture</title>
  <desc id="desc">Clients connect to EventServer through CodeWF.NetWrapper TCP transport. The server routes publish and query messages through inbound and outbound command channels and tracks subscriptions and pending queries.</desc>
  <defs>
    <style>
      .bg { fill: #f8fafc; }
      .panel { fill: #ffffff; stroke: #0f172a; stroke-width: 2; rx: 16; }
      .box { fill: #e2e8f0; stroke: #334155; stroke-width: 1.5; rx: 12; }
      .accent { fill: #dbeafe; stroke: #1d4ed8; stroke-width: 1.5; rx: 12; }
      .text { fill: #0f172a; font-family: "Segoe UI", Arial, sans-serif; font-size: 18px; }
      .small { fill: #334155; font-family: "Segoe UI", Arial, sans-serif; font-size: 15px; }
      .line { stroke: #2563eb; stroke-width: 3; fill: none; marker-end: url(#arrow); }
      .muted { stroke: #64748b; stroke-width: 2; fill: none; marker-end: url(#arrow-muted); }
    </style>
    <marker id="arrow" markerWidth="10" markerHeight="10" refX="8" refY="5" orient="auto">
      <path d="M0,0 L10,5 L0,10 z" fill="#2563eb" />
    </marker>
    <marker id="arrow-muted" markerWidth="10" markerHeight="10" refX="8" refY="5" orient="auto">
      <path d="M0,0 L10,5 L0,10 z" fill="#64748b" />
    </marker>
  </defs>

  <rect class="bg" width="980" height="520" rx="24" />

  <rect class="panel" x="340" y="40" width="300" height="440" />
  <text class="text" x="490" y="78" text-anchor="middle">EventServer</text>

  <rect class="accent" x="375" y="108" width="230" height="72" />
  <text class="text" x="490" y="138" text-anchor="middle">Subscription Map</text>
  <text class="small" x="490" y="160" text-anchor="middle">subject -&gt; connected clients</text>

  <rect class="accent" x="375" y="205" width="230" height="72" />
  <text class="text" x="490" y="235" text-anchor="middle">Pending Query Map</text>
  <text class="small" x="490" y="257" text-anchor="middle">request TaskId -&gt; requester socket</text>

  <rect class="box" x="375" y="302" width="230" height="64" />
  <text class="text" x="490" y="331" text-anchor="middle">Inbound Command Channel</text>
  <text class="small" x="490" y="352" text-anchor="middle">SocketCommand -&gt; routing pipeline</text>

  <rect class="box" x="375" y="386" width="230" height="64" />
  <text class="text" x="490" y="415" text-anchor="middle">Outbound Command Channel</text>
  <text class="small" x="490" y="436" text-anchor="middle">INetObject -&gt; NetWrapper transport</text>

  <rect class="panel" x="60" y="95" width="210" height="120" />
  <text class="text" x="165" y="132" text-anchor="middle">EventClient A</text>
  <text class="small" x="165" y="158" text-anchor="middle">Subscribe / Query</text>
  <text class="small" x="165" y="182" text-anchor="middle">Local handlers</text>

  <rect class="panel" x="60" y="305" width="210" height="120" />
  <text class="text" x="165" y="342" text-anchor="middle">EventClient B</text>
  <text class="small" x="165" y="368" text-anchor="middle">Publish / Respond</text>
  <text class="small" x="165" y="392" text-anchor="middle">Local handlers</text>

  <rect class="panel" x="710" y="200" width="210" height="120" />
  <text class="text" x="815" y="237" text-anchor="middle">EventClient C</text>
  <text class="small" x="815" y="263" text-anchor="middle">Publish / Subscribe</text>
  <text class="small" x="815" y="287" text-anchor="middle">Heartbeat</text>

  <path class="line" d="M270 155 L340 155" />
  <path class="line" d="M270 365 L340 365" />
  <path class="line" d="M710 260 L640 260" />

  <path class="muted" d="M640 145 L710 145 L710 200" />
  <path class="muted" d="M340 430 L270 430 L270 365" />

  <text class="small" x="305" y="143" text-anchor="middle">NetWrapper TCP</text>
  <text class="small" x="305" y="353" text-anchor="middle">NetWrapper TCP</text>
  <text class="small" x="675" y="248" text-anchor="middle">NetWrapper TCP</text>
</svg>
