<svg xmlns="http://www.w3.org/2000/svg" width="980" height="360" viewBox="0 0 980 360" role="img" aria-labelledby="title desc">
  <title id="title">Query flow</title>
  <desc id="desc">A requester sends RequestQuery with TaskId, the server forwards it, the responder publishes a response with QueryTaskId, and the server routes it back.</desc>
  <defs>
    <style>
      .bg { fill: #f8fafc; }
      .lane { stroke: #94a3b8; stroke-width: 2; stroke-dasharray: 6 6; }
      .box { fill: #ffffff; stroke: #0f172a; stroke-width: 2; rx: 14; }
      .text { fill: #0f172a; font-family: "Segoe UI", Arial, sans-serif; font-size: 18px; }
      .small { fill: #334155; font-family: "Segoe UI", Arial, sans-serif; font-size: 14px; }
      .arrow { stroke: #2563eb; stroke-width: 3; fill: none; marker-end: url(#arrow); }
      .arrow2 { stroke: #0f766e; stroke-width: 3; fill: none; marker-end: url(#arrow2); }
    </style>
    <marker id="arrow" markerWidth="10" markerHeight="10" refX="8" refY="5" orient="auto">
      <path d="M0,0 L10,5 L0,10 z" fill="#2563eb" />
    </marker>
    <marker id="arrow2" markerWidth="10" markerHeight="10" refX="8" refY="5" orient="auto">
      <path d="M0,0 L10,5 L0,10 z" fill="#0f766e" />
    </marker>
  </defs>

  <rect class="bg" width="980" height="360" rx="20" />

  <rect class="box" x="70" y="40" width="180" height="54" />
  <text class="text" x="160" y="74" text-anchor="middle">Requester</text>

  <rect class="box" x="400" y="40" width="180" height="54" />
  <text class="text" x="490" y="74" text-anchor="middle">EventServer</text>

  <rect class="box" x="730" y="40" width="180" height="54" />
  <text class="text" x="820" y="74" text-anchor="middle">Responder</text>

  <line class="lane" x1="160" y1="94" x2="160" y2="320" />
  <line class="lane" x1="490" y1="94" x2="490" y2="320" />
  <line class="lane" x1="820" y1="94" x2="820" y2="320" />

  <path class="arrow" d="M160 130 L490 130" />
  <text class="small" x="325" y="120" text-anchor="middle">1. RequestQuery(TaskId = Q1, Subject, Buffer)</text>

  <path class="arrow" d="M490 185 L820 185" />
  <text class="small" x="655" y="175" text-anchor="middle">2. UpdateEvent(TaskId = Q1, IsQueryRequest = true)</text>

  <path class="arrow2" d="M820 240 L490 240" />
  <text class="small" x="655" y="230" text-anchor="middle">3. RequestPublish(QueryTaskId = Q1, Subject, Buffer)</text>

  <path class="arrow2" d="M490 295 L160 295" />
  <text class="small" x="325" y="285" text-anchor="middle">4. UpdateEvent(TaskId = Q1, IsQueryRequest = false)</text>
</svg>
